# This file uses centimeters as units for non-parametric coordinates.

mtllib TShape.mtl
g default
v -100.516701 -314.639191 100.516701
v 100.516701 -314.639191 100.516701
v -100.516701 140.211670 100.516701
v 100.516701 140.211670 100.516701
v -100.516701 140.211670 -100.516701
v 100.516701 140.211670 -100.516701
v -100.516701 -314.639191 -100.516701
v 100.516701 -314.639191 -100.516701
v -100.516701 -3.535563 100.516701
v -100.516701 -3.535559 -100.516701
v 100.516701 -3.535559 -100.516701
v 100.516701 -3.535563 100.516701
v -407.662079 -3.535563 100.516701
v -407.662079 -3.535559 -100.516701
v -407.662079 140.211670 100.516701
v -407.662079 140.211670 -100.516701
v 407.662079 -3.535559 -100.516701
v 407.662079 -3.535563 100.516701
v 407.662079 140.211670 -100.516701
v 407.662079 140.211670 100.516701
vt 0.375000 0.000000
vt 0.625000 0.000000
vt 0.375000 0.250000
vt 0.625000 0.250000
vt 0.375000 0.500000
vt 0.625000 0.500000
vt 0.375000 0.750000
vt 0.625000 0.750000
vt 0.375000 1.000000
vt 0.625000 1.000000
vt 0.875000 0.000000
vt 0.875000 0.250000
vt 0.125000 0.000000
vt 0.125000 0.250000
vt 0.375000 0.121848
vt 0.125000 0.121848
vt 0.375000 0.628152
vt 0.625000 0.628152
vt 0.875000 0.121848
vt 0.625000 0.121848
vt 0.125000 0.121848
vt 0.375000 0.121848
vt 0.375000 0.250000
vt 0.125000 0.250000
vt 0.625000 0.121848
vt 0.875000 0.121848
vt 0.875000 0.250000
vt 0.625000 0.250000
vn 0.000000 0.000000 1.000000
vn 0.000000 0.000000 1.000000
vn 0.000000 0.000000 1.000000
vn 0.000000 0.000000 1.000000
vn 0.000000 1.000000 0.000000
vn 0.000000 1.000000 0.000000
vn 0.000000 1.000000 0.000000
vn 0.000000 1.000000 0.000000
vn 0.000000 0.000000 -1.000000
vn 0.000000 0.000000 -1.000000
vn 0.000000 0.000000 -1.000000
vn 0.000000 0.000000 -1.000000
vn 0.000000 -1.000000 0.000000
vn 0.000000 -1.000000 0.000000
vn 0.000000 -1.000000 0.000000
vn 0.000000 -1.000000 0.000000
vn 1.000000 0.000000 0.000000
vn 1.000000 0.000000 0.000000
vn 1.000000 0.000000 0.000000
vn 1.000000 0.000000 0.000000
vn -1.000000 0.000000 0.000000
vn -1.000000 0.000000 0.000000
vn -1.000000 0.000000 0.000000
vn -1.000000 0.000000 0.000000
vn -1.000000 0.000000 0.000000
vn -1.000000 0.000000 0.000000
vn -1.000000 0.000000 0.000000
vn -1.000000 0.000000 0.000000
vn 0.000000 0.000000 -1.000000
vn 0.000000 0.000000 -1.000000
vn 1.000000 0.000000 0.000000
vn 1.000000 0.000000 0.000000
vn 1.000000 0.000000 0.000000
vn 1.000000 0.000000 0.000000
vn 0.000000 0.000000 1.000000
vn 0.000000 0.000000 1.000000
vn 0.000000 -1.000000 -0.000000
vn 0.000000 -1.000000 -0.000000
vn 0.000000 -1.000000 -0.000000
vn 0.000000 -1.000000 -0.000000
vn 0.000000 0.000000 1.000000
vn 0.000000 0.000000 1.000000
vn 0.000000 0.000000 1.000000
vn 0.000000 0.000000 1.000000
vn 0.000000 1.000000 0.000000
vn 0.000000 1.000000 0.000000
vn 0.000000 1.000000 0.000000
vn 0.000000 1.000000 0.000000
vn 0.000000 0.000000 -1.000000
vn 0.000000 0.000000 -1.000000
vn 0.000000 0.000000 -1.000000
vn 0.000000 0.000000 -1.000000
vn 0.000000 -1.000000 -0.000000
vn 0.000000 -1.000000 -0.000000
vn 0.000000 -1.000000 -0.000000
vn 0.000000 -1.000000 -0.000000
vn 0.000000 0.000000 -1.000000
vn 0.000000 0.000000 -1.000000
vn 0.000000 0.000000 -1.000000
vn 0.000000 0.000000 -1.000000
vn 0.000000 1.000000 0.000000
vn 0.000000 1.000000 0.000000
vn 0.000000 1.000000 0.000000
vn 0.000000 1.000000 0.000000
vn 0.000000 0.000000 1.000000
vn 0.000000 0.000000 1.000000
vn 0.000000 0.000000 1.000000
vn 0.000000 0.000000 1.000000
s 1
g pCube1
usemtl initialShadingGroup
f 1/1/1 2/2/2 12/20/3 9/15/4
s off
f 3/3/5 4/4/6 6/6/7 5/5/8
s 2
f 10/17/9 11/18/10 8/8/11 7/7/12
s off
f 7/7/13 8/8/14 2/10/15 1/9/16
f 2/2/17 8/11/18 11/19/19 12/20/20
f 7/13/21 1/1/22 9/15/23 10/16/24
f 14/21/25 13/22/26 15/23/27 16/24/28
s 2
f 5/5/29 6/6/30 11/18/10 10/17/9
s off
f 18/25/31 17/26/32 19/27/33 20/28/34
s 1
f 9/15/4 12/20/3 4/4/35 3/3/36
s off
f 10/16/37 9/15/38 13/22/39 14/21/40
f 9/15/41 3/3/42 15/23/43 13/22/44
f 3/3/45 5/14/46 16/24/47 15/23/48
f 5/14/49 10/16/50 14/21/51 16/24/52
f 12/20/53 11/19/54 17/26/55 18/25/56
f 11/19/57 6/12/58 19/27/59 17/26/60
f 6/12/61 4/4/62 20/28/63 19/27/64
f 4/4/65 12/20/66 18/25/67 20/28/68
