# This file uses centimeters as units for non-parametric coordinates.

mtllib TTShape.mtl
g default
v -48.762005 -237.849976 -48.762005
v 48.762005 -237.849976 -48.762005
v -48.762005 -237.849976 48.762005
v 48.762005 -237.849976 48.762005
v -48.762005 -168.116241 -48.762005
v -48.762005 -168.116241 48.762005
v 48.762005 -168.116241 48.762005
v 48.762005 -168.116241 -48.762005
v -197.762360 -168.116241 -48.762005
v -197.762360 -168.116241 48.762005
v -197.762360 -237.849976 -48.762005
v -197.762360 -237.849976 48.762005
v 197.762360 -168.116241 48.762005
v 197.762360 -168.116241 -48.762005
v 197.762360 -237.849976 48.762005
v 197.762360 -237.849976 -48.762005
v -48.762005 -7.041565 48.762005
v 48.762005 -7.041565 48.762005
v -48.762005 213.612701 48.762005
v 48.762005 213.612701 48.762005
v -48.762005 213.612701 -48.762005
v 48.762005 213.612701 -48.762005
v -48.762005 -7.041565 -48.762005
v 48.762005 -7.041565 -48.762005
v -48.762005 143.878983 48.762005
v -48.762005 143.878998 -48.762005
v 48.762005 143.878998 -48.762005
v 48.762005 143.878983 48.762005
v -197.762360 143.878983 48.762005
v -197.762360 143.878998 -48.762005
v -197.762360 213.612701 48.762005
v -197.762360 213.612701 -48.762005
v 197.762360 143.878998 -48.762005
v 197.762360 143.878983 48.762005
v 197.762360 213.612701 -48.762005
v 197.762360 213.612701 48.762005
vt 0.375000 0.250000
vt 0.625000 0.250000
vt 0.375000 0.500000
vt 0.625000 0.500000
vt 0.875000 0.250000
vt 0.125000 0.250000
vt 0.375000 0.121848
vt 0.125000 0.121848
vt 0.375000 0.628152
vt 0.625000 0.628152
vt 0.875000 0.121848
vt 0.625000 0.121848
vt 0.125000 0.121848
vt 0.375000 0.121848
vt 0.375000 0.250000
vt 0.125000 0.250000
vt 0.625000 0.121848
vt 0.875000 0.121848
vt 0.875000 0.250000
vt 0.625000 0.250000
vt 0.375000 0.000000
vt 0.625000 0.000000
vt 0.625000 0.121848
vt 0.375000 0.121848
vt 0.375000 0.250000
vt 0.625000 0.250000
vt 0.625000 0.500000
vt 0.375000 0.500000
vt 0.375000 0.628152
vt 0.625000 0.628152
vt 0.750000 0.375000
vt 0.375000 0.750000
vt 0.875000 0.121848
vt 0.125000 0.000000
vt 0.125000 0.121848
vt 0.125000 0.121848
vt 0.375000 0.121848
vt 0.375000 0.250000
vt 0.125000 0.250000
vt 0.625000 0.121848
vt 0.875000 0.121848
vt 0.875000 0.250000
vt 0.625000 0.250000
vt 0.125000 0.250000
vt 0.875000 0.250000
vn 0.000000 0.000000 -1.000000
vn 0.000000 0.000000 -1.000000
vn 0.000000 0.000000 -1.000000
vn 0.000000 0.000000 -1.000000
vn 0.000000 -1.000000 0.000000
vn 0.000000 -1.000000 0.000000
vn 0.000000 -1.000000 0.000000
vn 0.000000 -1.000000 0.000000
vn -1.000000 0.000000 0.000000
vn -1.000000 0.000000 0.000000
vn -1.000000 0.000000 0.000000
vn -1.000000 0.000000 0.000000
vn -1.000000 0.000000 0.000000
vn -1.000000 0.000000 0.000000
vn -1.000000 0.000000 0.000000
vn -1.000000 0.000000 0.000000
vn 0.000000 0.000000 1.000000
vn 0.000000 0.000000 1.000000
vn 0.000000 0.000000 1.000000
vn 0.000000 0.000000 1.000000
vn 1.000000 0.000000 0.000000
vn 1.000000 0.000000 0.000000
vn 1.000000 0.000000 0.000000
vn 1.000000 0.000000 0.000000
vn 0.000000 0.000000 -1.000000
vn 0.000000 0.000000 -1.000000
vn 0.000000 1.000000 0.000000
vn 0.000000 1.000000 0.000000
vn 0.000000 1.000000 0.000000
vn 0.000000 1.000000 0.000000
vn 0.000000 0.000000 -1.000000
vn 0.000000 0.000000 -1.000000
vn 0.000000 0.000000 -1.000000
vn 0.000000 0.000000 -1.000000
vn 0.000000 -1.000000 0.000000
vn 0.000000 -1.000000 0.000000
vn 0.000000 -1.000000 0.000000
vn 0.000000 -1.000000 0.000000
vn 0.000000 0.000000 1.000000
vn 0.000000 0.000000 1.000000
vn 0.000000 0.000000 1.000000
vn 0.000000 0.000000 1.000000
vn 0.000000 1.000000 0.000000
vn 0.000000 1.000000 0.000000
vn 0.000000 1.000000 0.000000
vn 0.000000 1.000000 0.000000
vn 0.000000 0.000000 1.000000
vn 0.000000 0.000000 1.000000
vn 0.000000 0.000000 1.000000
vn 0.000000 0.000000 1.000000
vn 0.000000 -1.000000 0.000000
vn 0.000000 -1.000000 0.000000
vn 0.000000 -1.000000 0.000000
vn 0.000000 -1.000000 0.000000
vn 0.000000 0.000000 -1.000000
vn 0.000000 0.000000 -1.000000
vn 0.000000 0.000000 -1.000000
vn 0.000000 0.000000 -1.000000
vn 0.000000 0.000000 1.000000
vn 0.000000 0.000000 1.000000
vn 0.000000 0.000000 1.000000
vn 0.000000 0.000000 1.000000
vn 0.000000 1.000000 0.000000
vn 0.000000 1.000000 0.000000
vn 0.000000 1.000000 0.000000
vn 0.000000 1.000000 0.000000
vn 0.000000 0.000000 -1.000000
vn 0.000000 0.000000 -1.000000
vn 0.000000 0.000000 -1.000000
vn 0.000000 0.000000 -1.000000
vn 1.000000 0.000000 0.000000
vn 1.000000 0.000000 0.000000
vn 1.000000 0.000000 0.000000
vn 1.000000 0.000000 0.000000
vn -1.000000 0.000000 0.000000
vn -1.000000 0.000000 0.000000
vn -1.000000 0.000000 0.000000
vn -1.000000 0.000000 0.000000
vn -1.000000 0.000000 0.000000
vn -1.000000 0.000000 0.000000
vn -1.000000 0.000000 0.000000
vn -1.000000 0.000000 0.000000
vn 0.000000 0.000000 -1.000000
vn 0.000000 0.000000 -1.000000
vn 1.000000 0.000000 0.000000
vn 1.000000 0.000000 0.000000
vn 1.000000 0.000000 0.000000
vn 1.000000 0.000000 0.000000
vn 0.000000 0.000000 1.000000
vn 0.000000 0.000000 1.000000
vn 0.000000 -1.000000 -0.000000
vn 0.000000 -1.000000 -0.000000
vn 0.000000 -1.000000 -0.000000
vn 0.000000 -1.000000 -0.000000
vn 0.000000 0.000000 1.000000
vn 0.000000 0.000000 1.000000
vn 0.000000 0.000000 1.000000
vn 0.000000 0.000000 1.000000
vn 0.000000 1.000000 0.000000
vn 0.000000 1.000000 0.000000
vn 0.000000 1.000000 0.000000
vn 0.000000 1.000000 0.000000
vn 0.000000 0.000000 -1.000000
vn 0.000000 0.000000 -1.000000
vn 0.000000 0.000000 -1.000000
vn 0.000000 0.000000 -1.000000
vn 0.000000 -1.000000 -0.000000
vn 0.000000 -1.000000 -0.000000
vn 0.000000 -1.000000 -0.000000
vn 0.000000 -1.000000 -0.000000
vn 0.000000 0.000000 -1.000000
vn 0.000000 0.000000 -1.000000
vn 0.000000 0.000000 -1.000000
vn 0.000000 0.000000 -1.000000
vn 0.000000 1.000000 0.000000
vn 0.000000 1.000000 0.000000
vn 0.000000 1.000000 0.000000
vn 0.000000 1.000000 0.000000
vn 0.000000 0.000000 1.000000
vn 0.000000 0.000000 1.000000
vn 0.000000 0.000000 1.000000
vn 0.000000 0.000000 1.000000
vn 1.000000 0.000000 0.000000
vn 1.000000 0.000000 0.000000
vn 1.000000 0.000000 0.000000
vn 1.000000 0.000000 0.000000
vn 0.000000 0.000000 1.000000
vn 0.000000 0.000000 1.000000
s 1
g pCube3
usemtl initialShadingGroup
f 8/12/1 5/7/2 23/32/3 24/31/4
s off
f 1/1/5 2/2/6 4/4/7 3/3/8
f 5/7/9 6/8/10 17/21/11 23/34/12
f 10/13/13 9/14/14 11/15/15 12/16/16
s 2
f 3/3/17 4/4/18 7/10/19 6/9/20
s off
f 14/17/21 13/18/22 15/19/23 16/20/24
s 1
f 5/7/2 8/12/1 2/2/25 1/1/26
s off
f 6/8/27 5/7/28 9/14/29 10/13/30
f 5/7/31 1/1/32 11/15/33 9/14/34
f 1/1/35 3/6/36 12/16/37 11/15/38
f 3/6/39 6/8/40 10/13/41 12/16/42
f 8/12/43 7/11/44 13/18/45 14/17/46
f 7/11/47 4/5/48 15/19/49 13/18/50
f 4/5/51 2/2/52 16/20/53 15/19/54
f 2/2/55 8/12/56 14/17/57 16/20/58
s 3
f 17/21/59 18/22/60 28/23/61 25/24/62
s off
f 19/25/63 20/26/64 22/27/65 21/28/66
s 4
f 26/29/67 27/30/68 24/31/69 23/32/70
s off
f 18/22/71 24/31/72 27/33/73 28/23/74
f 23/34/75 17/21/76 25/24/77 26/35/78
f 30/36/79 29/37/80 31/38/81 32/39/82
s 4
f 21/28/83 22/27/84 27/30/68 26/29/67
s off
f 34/40/85 33/41/86 35/42/87 36/43/88
s 3
f 25/24/62 28/23/61 20/26/89 19/25/90
s off
f 26/35/91 25/24/92 29/37/93 30/36/94
f 25/24/95 19/25/96 31/38/97 29/37/98
f 19/25/99 21/44/100 32/39/101 31/38/102
f 21/44/103 26/35/104 30/36/105 32/39/106
f 28/23/107 27/33/108 33/41/109 34/40/110
f 27/33/111 22/45/112 35/42/113 33/41/114
f 22/45/115 20/26/116 36/43/117 35/42/118
f 20/26/119 28/23/120 34/40/121 36/43/122
f 8/12/123 24/31/124 18/22/125 7/11/126
s 2
f 7/10/19 18/22/127 17/21/128 6/9/20
